<svg width="312" height="312" viewBox="0 0 312 312" fill="none" xmlns="http://www.w3.org/2000/svg">
<path d="M216.868 183.634L216.868 183.624L216.868 183.613C216.868 158.04 196.289 137.491 170.983 137.708C142.949 137.947 119.957 114.955 120.196 86.921C120.34 70.1548 128.477 55.1652 141.021 45.9008C103.668 58.4261 76.7211 93.7323 76.7211 135.278C76.7211 187.287 118.953 229.519 170.962 229.519C196.536 229.519 217.084 208.94 216.868 183.634Z" fill="#0A0A0A" stroke="#0A0A0A" stroke-width="4.86053"/>
<ellipse cx="155.172" cy="69.3427" rx="9.64798" ry="12.7684" transform="rotate(30 155.172 69.3427)" fill="#0A0A0A"/>
<ellipse cx="188.069" cy="79.1769" rx="9.64798" ry="12.7684" transform="rotate(6.34162 188.069 79.1769)" fill="#0A0A0A"/>
<path d="M168.464 94.0652C167.031 94.7659 165.3 94.2932 164.422 92.9611L161.073 87.8804C160.242 86.6194 160.554 84.9269 161.781 84.0461V84.0461C162.475 83.5479 163.358 83.3921 164.181 83.6226L173.413 86.2089C174.305 86.4588 175.016 87.1344 175.31 88.0129V88.0129C175.756 89.3432 175.147 90.798 173.887 91.4142L168.464 94.0652Z" fill="#0A0A0A"/>
<path d="M157.387 39.5635C156.578 36.5429 154.602 33.9676 151.893 32.4041C149.185 30.8405 145.967 30.4168 142.946 31.2262C139.926 32.0355 137.35 34.0116 135.787 36.7198C134.223 39.4279 133.8 42.6463 134.609 45.6668L145.998 42.6152L157.387 39.5635Z" fill="#0A0A0A"/>
<path d="M214.179 55.7069C215.952 53.1308 216.629 49.956 216.061 46.8809C215.492 43.8059 213.726 41.0825 211.15 39.3098C208.574 37.5371 205.399 36.8604 202.324 37.4286C199.249 37.9967 196.525 39.7632 194.753 42.3393L204.466 49.0231L214.179 55.7069Z" fill="#0A0A0A"/>
<path d="M101.687 237.428H78.2095V235.365H105.245L81.6956 286.661H105.031V288.724H78.2095L101.687 237.428Z" fill="#0A0A0A"/>
<path d="M132.549 242.386L132.549 288.724L128.477 288.724L128.477 235.365L229.718 281.844L229.718 235.787L233.791 235.787L233.791 288.724L132.549 242.386Z" fill="#0A0A0A"/>
<path d="M106.718 235.365H125.856V237.428H109.066V266.456H123.081V268.519H109.066V286.661H125.856V288.724H106.718V235.365Z" fill="#0A0A0A"/>
</svg>
