<svg width="820" height="312" viewBox="0 0 820 312" fill="none" xmlns="http://www.w3.org/2000/svg">
<rect width="820" height="312" fill="#CBD5E1"/>
<path d="M252.721 210.366L252.721 210.356L252.721 210.346C252.721 184.772 232.142 164.224 206.836 164.44C178.802 164.68 155.81 141.688 156.049 113.653C156.193 96.8872 164.33 81.8976 176.874 72.6332C139.521 85.1586 112.574 120.465 112.574 162.01C112.574 214.02 154.806 256.251 206.815 256.251C232.389 256.251 252.937 235.672 252.721 210.366Z" fill="#0A0A0A" stroke="#0A0A0A" stroke-width="4.86053"/>
<ellipse cx="191.025" cy="96.0751" rx="9.64798" ry="12.7684" transform="rotate(30 191.025 96.0751)" fill="#0A0A0A"/>
<ellipse cx="223.922" cy="105.909" rx="9.64798" ry="12.7684" transform="rotate(6.34162 223.922 105.909)" fill="#0A0A0A"/>
<path d="M204.317 120.798C202.884 121.499 201.153 121.026 200.275 119.694L196.926 114.613C196.094 113.352 196.407 111.66 197.634 110.779C198.328 110.281 199.211 110.125 200.034 110.355L209.266 112.942C210.158 113.192 210.868 113.867 211.163 114.746C211.609 116.076 211 117.531 209.74 118.147L204.317 120.798Z" fill="#0A0A0A"/>
<path d="M193.24 66.2964C192.43 63.2758 190.454 60.7005 187.746 59.137C185.038 57.5734 181.82 57.1497 178.799 57.9591C175.779 58.7684 173.203 60.7445 171.64 63.4527C170.076 66.1608 169.652 69.3792 170.462 72.3997L181.851 69.3481L193.24 66.2964Z" fill="#0A0A0A"/>
<path d="M250.032 82.4393C251.805 79.8632 252.481 76.6884 251.913 73.6133C251.345 70.5383 249.579 67.8149 247.002 66.0422C244.426 64.2696 241.251 63.5929 238.176 64.161C235.101 64.7291 232.378 66.4956 230.605 69.0717L240.319 75.7555L250.032 82.4393Z" fill="#0A0A0A"/>
<path d="M438.647 171.351H400.218L436.303 106.622L432.124 97.6515H388.495V108.457H422.949L386.864 173.186L390.228 181.952H438.647V171.351ZM424.478 88.4773C431.342 88.4773 437.56 89.4966 443.133 91.5353C448.705 93.574 453.428 96.3603 457.302 99.894C461.243 103.428 464.267 107.573 466.374 112.33C468.481 117.019 469.534 122.014 469.534 127.315V189.291C469.534 194.592 468.481 199.621 466.374 204.378C464.267 209.067 461.243 213.178 457.302 216.712C453.428 220.246 448.705 223.032 443.133 225.071C437.56 227.11 431.342 228.129 424.478 228.129H393.082C386.219 228.129 380.001 227.11 374.428 225.071C368.856 223.032 364.099 220.246 360.157 216.712C356.284 213.178 353.293 209.067 351.187 204.378C349.08 199.621 348.027 194.592 348.027 189.291V127.315C348.027 122.014 349.08 117.019 351.187 112.33C353.293 107.573 356.284 103.428 360.157 99.894C364.099 96.3603 368.856 93.574 374.428 91.5353C380.001 89.4966 386.219 88.4773 393.082 88.4773H424.478ZM545.17 88.4773C552.034 88.4773 558.252 89.4966 563.824 91.5353C569.397 93.574 574.12 96.3603 577.993 99.894C581.935 103.428 584.959 107.573 587.066 112.33C589.172 117.019 590.226 122.014 590.226 127.315V189.291C590.226 194.592 589.172 199.621 587.066 204.378C584.959 209.067 581.935 213.178 577.993 216.712C574.12 220.246 569.397 223.032 563.824 225.071C558.252 227.11 552.034 228.129 545.17 228.129H513.774C506.91 228.129 500.692 227.11 495.12 225.071C489.547 223.032 484.79 220.246 480.849 216.712C476.975 213.178 473.985 209.067 471.878 204.378C469.772 199.621 468.718 194.592 468.718 189.291V127.315C468.718 122.014 469.772 117.019 471.878 112.33C473.985 107.573 476.975 103.428 480.849 99.894C484.79 96.3603 489.547 93.574 495.12 91.5353C500.692 89.4966 506.91 88.4773 513.774 88.4773H545.17ZM558.524 113.961L556.995 105.399L550.573 98.8747L540.277 97.6515H518.157L507.964 98.8747L501.542 105.399L500.013 113.961V162.381L501.542 170.943L507.964 177.365L518.157 178.69H543.845L555.771 177.161L553.223 166.152L543.641 167.783H518.871L512.347 166.764L510.92 160.648V139.649H558.524V113.961ZM510.92 128.946V115.184L511.735 109.374L518.871 108.253H539.666L546.597 109.374L547.617 115.388V128.946H510.92ZM684.822 113.961L683.395 105.399L676.871 98.8747L666.473 97.6515H640.989L622.641 100.2V181.952H633.446V109.578L641.397 108.253H665.862L672.895 109.374L673.915 115.388V181.952H684.822V113.961ZM665.862 88.4773C672.725 88.4773 678.943 89.4966 684.516 91.5353C690.088 93.574 694.811 96.3603 698.685 99.894C702.626 103.428 705.651 107.573 707.757 112.33C709.864 117.019 710.917 122.014 710.917 127.315V189.291C710.917 194.592 709.864 199.621 707.757 204.378C705.651 209.067 702.626 213.178 698.685 216.712C694.811 220.246 690.088 223.032 684.516 225.071C678.943 227.11 672.725 228.129 665.862 228.129H634.466C627.602 228.129 621.384 227.11 615.811 225.071C610.239 223.032 605.482 220.246 601.54 216.712C597.667 213.178 594.677 209.067 592.57 204.378C590.463 199.621 589.41 194.592 589.41 189.291V127.315C589.41 122.014 590.463 117.019 592.57 112.33C594.677 107.573 597.667 103.428 601.54 99.894C605.482 96.3603 610.239 93.574 615.811 91.5353C621.384 89.4966 627.602 88.4773 634.466 88.4773H665.862Z" fill="black"/>
</svg>
